<svg xmlns="http://www.w3.org/2000/svg" viewBox="0 0 48 48" id="calendar">
  <g fill="#001010" class="color000000 svgShape">
    <path d="M4,20C4,12.46,4,8.69,6.34,6.34S12.46,4,20,4h8c7.54,0,11.31,0,13.66,2.34S44,12.46,44,20v8c0,7.54,0,11.31-2.34,13.66S35.54,44,28,44H20c-7.54,0-11.31,0-13.66-2.34S4,35.54,4,28Z" fill="#001010" class="color000000 svgShape"></path>
    <path fill="#ffffff" d="M14.25,31A1.76,1.76,0,0,0,16,32.75H32A1.76,1.76,0,0,0,33.75,31V22.75H14.25ZM28,25h2a.75.75,0,0,1,0,1.5H28A.75.75,0,0,1,28,25Zm0,4h2a.75.75,0,0,1,0,1.5H28A.75.75,0,0,1,28,29Zm-5-4h2a.75.75,0,0,1,0,1.5H23A.75.75,0,0,1,23,25Zm0,4h2a.75.75,0,0,1,0,1.5H23A.75.75,0,0,1,23,29Zm-5-4h2a.75.75,0,0,1,0,1.5H18A.75.75,0,0,1,18,25Zm0,4h2a.75.75,0,0,1,0,1.5H18A.75.75,0,0,1,18,29ZM33.75,18v3.25H14.25V18A1.76,1.76,0,0,1,16,16.25h3.25V16a.75.75,0,0,1,1.5,0v.25h6.5V16a.75.75,0,0,1,1.5,0v.25H32A1.76,1.76,0,0,1,33.75,18Z" class="colorffffff svgShape"></path>
  </g>
</svg>
