<svg xmlns="http://www.w3.org/2000/svg" xmlns:xlink="http://www.w3.org/1999/xlink" viewBox="0,0,256,256" width="50px" height="50px" fill-rule="nonzero"><g fill="#ffffff" fill-rule="nonzero" stroke="none" stroke-width="1" stroke-linecap="butt" stroke-linejoin="miter" stroke-miterlimit="10" stroke-dasharray="" stroke-dashoffset="0" font-family="none" font-weight="none" font-size="none" text-anchor="none" style="mix-blend-mode: normal"><g transform="scale(5.12,5.12)"><path d="M41,4h-32c-2.76,0 -5,2.24 -5,5v32c0,2.76 2.24,5 5,5h32c2.76,0 5,-2.24 5,-5v-32c0,-2.76 -2.24,-5 -5,-5zM27,37.62c0,0.23 -0.19,0.38 -0.48,0.38h-3.04c-0.29,0 -0.48,-0.15 -0.48,-0.38v-17.24c0,-0.23 0.19,-0.38 0.48,-0.38h3.04c0.29,0 0.48,0.15 0.48,0.38zM27,15.57c0,0.26 -0.18,0.43 -0.46,0.43h-3.09c-0.27,0 -0.45,-0.17 -0.45,-0.43v-3.14c0,-0.26 0.18,-0.43 0.45,-0.43h3.09c0.28,0 0.46,0.17 0.46,0.43z"></path></g></g></svg>