<svg xmlns="http://www.w3.org/2000/svg" xmlns:xlink="http://www.w3.org/1999/xlink" viewBox="0,0,256,256" width="48px" height="48px" fill-rule="nonzero"><defs><linearGradient x1="37.217" y1="8.516" x2="13.692" y2="32.041" gradientUnits="userSpaceOnUse" id="color-1"><stop offset="0" stop-color="#60fea4"></stop><stop offset="0.033" stop-color="#6afeaa"></stop><stop offset="0.197" stop-color="#97fec4"></stop><stop offset="0.362" stop-color="#bdffd9"></stop><stop offset="0.525" stop-color="#daffea"></stop><stop offset="0.687" stop-color="#eefff5"></stop><stop offset="0.846" stop-color="#fbfffd"></stop><stop offset="1" stop-color="#ffffff"></stop></linearGradient></defs><g fill="none" fill-rule="nonzero" stroke="none" stroke-width="none" stroke-linecap="none" stroke-linejoin="none" stroke-miterlimit="10" stroke-dasharray="" stroke-dashoffset="0" font-family="none" font-weight="none" font-size="none" text-anchor="none" style="mix-blend-mode: normal"><g transform="scale(5.33333,5.33333)"><path d="M42.03,24.494c0.114,-7.292 -5.197,-15.447 -7.526,-18.665c-0.534,-0.738 -1.628,-0.755 -2.185,-0.034c-1.487,1.925 -4.146,5.668 -6.014,9.952c-6.21,-3.991 -14.586,-5.599 -18.422,-6.152c-1.06,-0.153 -1.97,0.757 -1.817,1.817c0.667,4.625 2.855,15.86 8.921,21.925c8.117,8.117 14.857,7.661 18.2,6.64c0.274,-0.075 0.714,-0.217 1.258,-0.465c0.654,-0.289 1.01,-0.529 1.01,-0.529c0,0 0.004,-0.006 0.005,-0.007c2.658,-1.597 6.429,-5.446 6.57,-14.482z" fill="url(#color-1)" stroke="none" stroke-width="1" stroke-linecap="butt" stroke-linejoin="miter"></path><path d="M34.964,38.964c0,0 5.963,-8.769 -5.612,-20.344c-2.42,-2.42 -5.667,-4.219 -8.985,-5.548" fill="none" stroke="#10e36c" stroke-width="3" stroke-linecap="round" stroke-linejoin="round"></path><path d="M11.942,10.546c-3.731,-0.81 -6.442,-1.046 -6.442,-1.046c0,0 1.403,16.135 9.12,23.852c4.456,4.456 8.496,6.313 11.78,6.911" fill="none" stroke="#10e36c" stroke-width="3" stroke-linecap="round" stroke-linejoin="round"></path><path d="M14.5,17.5c0,0 14.5,8 20.464,21.464c1.249,2.819 1.536,5.536 1.536,5.536" fill="none" stroke="#10e36c" stroke-width="3" stroke-linecap="round" stroke-linejoin="round"></path><path d="M40.648,30.604v0c0.777,1.008 2.368,0.66 2.663,-0.578c0.432,-1.815 0.689,-3.925 0.689,-6.383c0,-9.861 -8.97,-20.653 -9.352,-21.107c-0.569,-0.678 -1.728,-0.678 -2.297,0c-0.209,0.248 -2.989,3.593 -5.465,8.188c-0.373,0.692 -0.148,1.558 0.518,1.974l0.026,0.016c0.732,0.457 1.697,0.198 2.108,-0.562c1.416,-2.621 2.948,-4.837 3.963,-6.206c2.353,3.172 7.499,10.889 7.499,17.697c0,2.211 -0.233,4.079 -0.615,5.664c-0.109,0.453 -0.021,0.928 0.263,1.297z" fill="#10e36c" stroke="none" stroke-width="1" stroke-linecap="butt" stroke-linejoin="miter"></path></g></g></svg>