<svg xmlns="http://www.w3.org/2000/svg" xmlns:xlink="http://www.w3.org/1999/xlink" viewBox="0,0,256,256" width="24px" height="24px" fill-rule="nonzero"><g fill="#ffffff" fill-rule="nonzero" stroke="none" stroke-width="1" stroke-linecap="butt" stroke-linejoin="miter" stroke-miterlimit="10" stroke-dasharray="" stroke-dashoffset="0" font-family="none" font-weight="none" font-size="none" text-anchor="none" style="mix-blend-mode: normal"><g transform="scale(10.66667,10.66667)"><path d="M17,5.2496v6c0,1.1046 -0.8954,2 -2,2h-7.6668c-0.2163,0 -0.4268,0.0701 -0.5999,0.2l-2.9333,2.2c-0.3296,0.2472 -0.8,0.012 -0.8,-0.4v-10c0,-1.1046 0.8954,-2 2,-2h10c1.1046,0 2,0.8954 2,2zM21,10.2496c0,-1.1046 -0.8954,-2 -2,-2h-0.5v3c0,1.933 -1.567,3.5 -3.5,3.5h-8v1.5c0,1.1046 0.8954,2 2,2h7.6666c0.2164,0 0.4269,0.0702 0.6,0.2l2.9333,2.2c0.3296,0.2472 0.8,0.012 0.8,-0.4v-10z"></path></g></g></svg>