<svg xmlns="http://www.w3.org/2000/svg" fill-rule="evenodd" stroke-linejoin="round" stroke-miterlimit="2" clip-rule="evenodd" viewBox="0 0 64 64" id="previous-time">
  <g transform="translate(-2528 -248)">
    <path d="M2537.01,260.739C2537,257.802 2537,255 2537,255C2537,253.896 2536.1,253 2535,253C2533.9,253 2533,253.896 2533,255C2533,255 2533,260.106 2533.02,263.764C2533.02,265.081 2533.89,266.248 2535.16,266.619C2536.44,266.99 2537.8,266.478 2538.51,265.361C2543.17,258.519 2551.06,254 2560,254C2574.35,254 2586,265.65 2586,280C2586,294.35 2574.35,306 2560,306C2545.65,306 2534,294.35 2534,280C2534,278.896 2533.1,278 2532,278C2530.9,278 2530,278.896 2530,280C2530,296.557 2543.44,310 2560,310C2576.56,310 2590,296.557 2590,280C2590,263.443 2576.56,250 2560,250C2550.77,250 2542.51,254.175 2537.01,260.739ZM2560,258C2547.86,258 2538,267.858 2538,280C2538,292.142 2547.86,302 2560,302C2572.14,302 2582,292.142 2582,280C2582,267.858 2572.14,258 2560,258ZM2558,268L2558,280C2558,280.53 2558.21,281.039 2558.59,281.414L2563.59,286.414C2564.37,287.195 2565.63,287.195 2566.41,286.414C2567.2,285.634 2567.2,284.366 2566.41,283.586L2562,279.172C2562,279.172 2562,268 2562,268C2562,266.896 2561.1,266 2560,266C2558.9,266 2558,266.896 2558,268Z"></path>
  </g>
</svg>
