<svg xmlns="http://www.w3.org/2000/svg" xmlns:xlink="http://www.w3.org/1999/xlink" viewBox="0,0,256,256" width="48px" height="48px" fill-rule="evenodd"><g fill="#ffffff" fill-rule="evenodd" stroke="none" stroke-width="1" stroke-linecap="butt" stroke-linejoin="miter" stroke-miterlimit="10" stroke-dasharray="" stroke-dashoffset="0" font-family="none" font-weight="none" font-size="none" text-anchor="none" style="mix-blend-mode: normal"><g transform="scale(10.66667,10.66667)"><path d="M12,1.25c-3.17564,0 -5.75,2.57436 -5.75,5.75c0,3.17564 2.57436,5.75 5.75,5.75c3.17564,0 5.75,-2.57436 5.75,-5.75c0,-3.17564 -2.57436,-5.75 -5.75,-5.75zM21.75,20v0c0,-1.79 -0.711,-3.507 -1.977,-4.773c-1.266,-1.266 -2.983,-1.977 -4.773,-1.977c-1.931,0 -4.069,0 -6,0c-1.79,0 -3.507,0.711 -4.773,1.977c-1.266,1.266 -1.977,2.983 -1.977,4.773c0,0.729 0.29,1.429 0.805,1.945c0.516,0.515 1.216,0.805 1.945,0.805c3.463,0 10.537,0 14,0c0.729,0 1.429,-0.29 1.945,-0.805c0.515,-0.516 0.805,-1.216 0.805,-1.945z"></path></g></g></svg>