<svg xmlns="http://www.w3.org/2000/svg" fill="none" viewBox="0 0 2000 2000" width="2000" height="2000"><defs><clipPath id="assetClipPath_3z--IOYv"><path d="m0 0 h 449.918 a 0,0 0 0 1 0,0 v 1166.356 a 0,0 0 0 1 -0,0 h -449.918 a 0,0 0 0 1 -0,-0 v -1166.356 a 0,0 0 0 1 0,-0 z" id="path_C4jEjvyO" fill="#ffffff" /></clipPath><clipPath id="assetClipPath_7Mo3zbF9"><path d="m0 0 h 606.803 a 0,0 0 0 1 0,0 v 1342.338 a 0,0 0 0 1 -0,0 h -606.803 a 0,0 0 0 1 -0,-0 v -1342.338 a 0,0 0 0 1 0,-0 z" id="path_NTu8SDi1" fill="#ffffff" /></clipPath><clipPath id="assetClipPath_NEW_CRbb"><path d="m0 0 h 671.582 a 0,0 0 0 1 0,0 v 1289.101 a 0,0 0 0 1 -0,0 h -671.582 a 0,0 0 0 1 -0,-0 v -1289.101 a 0,0 0 0 1 0,-0 z" id="path_Q8G8wsm9" fill="#ffffff" /></clipPath></defs><g transform="translate(86 477) rotate(0 236.5 615.5) scale(1 1)" opacity="1"><g clip-path="url(#assetClipPath_3z--IOYv)" transform="scale(1.0513026818220208 1.0513026818220208)"><defs />
  <g id="UPLOAD">
    <path d="M215.25,1143.854c206.503-3.784,154.907,24.515,156.596-62.175-10.77-166.559-19.914-328.714-30.528-496.154-20.639-4.439-51.593,1.686-75.293.641-77.68,3.69-160.775.034-235.284,6.146,4.06,76.546,7.469,152.835,10.499,229.606,5.419,105.9,5.862,215.104,13.326,320.692,51.886,3.835,107.754-.051,160.683,1.246Z" fill="rgba(45,136,26,1)" id="Q4liFdhleQlejPC_QB89W" />
    <path d="M18.18,61.157c16.933,206.479.695,170.201,37.615,174.36,93.026-.014,184.132,2.013,276.708,1.713,2.211-28.439-3.717-59.049-4.419-88.695-1.014-5.559.648-13.398-2.685-17.267-13.582-2.14-26.772-6.95-37.233-16.187-27.312,1.849-92.594,69.473-107.562,56.823C126.558,135.712,71.019,100.599,18.18,61.157Z" fill="rgba(255,255,255,1)" id="RVPuxAlZKdukPSmCo-WJd" />
    <path d="M31.114,50.461c178.533,112.787,153.28,112.326,177.137,94.83,87.609-63.887,64.408-22.737,55.647-84.266-77.017-4.267-154.795-7.558-232.784-10.564Z" fill="rgba(255,255,255,1)" id="GiXm_g3Lw5Th6FyiJtnfR" />
    <path d="M327.387,112.54c73.519-3.811,68.731-93.753.527-96.261-67.635,2.196-64.614,96.289-.527,96.261Z" fill="rgba(255,92,51,1)" id="s0oRPYjJXKkh_TFFg5wap" />
    <path d="M411.258,388.639c-22.782-1.556-29.289,27.328-5.858,33.319,34.891,5.973,36.148-31.084,5.858-33.319Z" fill="rgba(255,160,193,1)" id="B2F1FwMgDHGE0dd-Oq" />
    <path d="M426.951,373.576c-17.752-7.961-38.453-1.562-46.212,14.453-1.123,3.676-3.121,5.463-6.092,5.463-.064,0-.131,0-.2-.003-24.523-.88-48.81-2.031-72.295-3.145-33.777-1.601-68.706-3.257-103.963-4.055-3.309.269-5.456-.028-6.379-.903-.959-.913-.9-2.798-.823-5.189.054-1.729.115-3.691-.182-5.604-.085-20.235-1.208-40.867-2.293-60.819-.982-18.07-1.998-36.745-2.211-54.779,24.082-1.816,49.623-1.144,74.339-.49,15.656.413,31.856.839,47.615.646,23.72,1.067,34.69.934,40.095-4.789,5.476-5.804,4.383-16.377,2.203-37.437-1.916-18.519-4.804-46.42-4.273-85.783,25.739-7.438,43.886-26.949,49.859-53.704,7.038-35.706-17.018-62.638-42.349-72.551-23.99-9.385-59.716-7.787-81.479,27.598l-.131.28c-2.924,8.962-25.259,6.953-51.116,4.632-13.976-1.257-29.83-2.68-44.499-2.478-47.761-.115-83.062-3.237-108.839-5.517-34.601-3.057-51.965-4.594-60.773,4.24C-2.65,43.277-.752,63.976,3.405,109.326c2.373,25.898,5.625,61.368,7.656,107.021,1.003,8.187,1.167,14.71,1.298,19.952.544,21.894,1.477,21.874,50.575,21.127,21.93-.333,55.074-.844,102.84.426l.657.018.408-.513s.003-.005.003-.005c4.755,6.045,6.002,79.663,7.21,150.894.895,52.773,1.906,112.525,4.389,159.135-22.279,4.337-46.761,4.235-70.44,4.104-29.289-.144-59.573-.29-86.13,7.954l-.882.274-.041.923c-2.398,55.743.064,115.739,2.444,173.757,1.567,38.168,3.047,74.221,3.234,109.003v.046c2.196,54.553,3.922,106.769,5.589,157.267,1.226,37.127,2.496,75.519,3.958,115.141.246,3.504.298,6.594.341,9.318.344,21.202,1.754,21.184,75.401,20.404,33.895-.362,85.109-.908,159.427.339,12.296.292,23.374.444,34.303.444,13.635,0,27.044-.233,42.303-.703l.303-.046c3.488-.946,8.841-.567,14.517-.172,11.945.844,26.832,1.893,28.25-11.155-4.509-106.033-11.216-212.4-17.7-315.263-4.022-63.805-8.179-129.779-11.832-195.754-2.801-23.023-2.537-39.453-2.344-51.452.215-13.402.336-20.786-4.119-25.041-5.643-5.389-17.564-4.658-46.356-2.878-18.847,1.162-44.655,2.752-80.259,3.342-8.297-.244-14.638.239-19.265.587-5.735.433-9.203.698-10.791-.782-2.226-2.07-2.208-8.718-2.172-21.961.033-12.884.085-32.354-1.77-61.527.285-11.155-.439-23.471-1.139-35.385-.928-15.815-1.885-32.151-.482-45.822,23.082,1.339,45.312,2.688,67.321,4.022,36.376,2.208,70.732,4.294,107.865,6.276,3.186.344,4.917.31,6.051.29,1.403-.033,1.503-.031,3.093,1.231,6.161,18.832,18.791,29.535,34.716,29.027,16.582-.395,32.851-12.889,37.037-28.447,4.076-15.146-3.86-30.122-21.92-41.167ZM392.189,403.26c1.062-6.605,6.897-13.368,17.275-13.368.554,0,1.118.018,1.695.059,9.144.675,16.3,4.896,19.142,11.293,2.067,4.658,1.513,9.739-1.483,13.589-4.278,5.499-12.73,7.625-23.092,5.853-11.583-2.962-14.53-11.237-13.538-17.426ZM373.709,1123.019c1.421,9.167,2.28,14.699-.197,17.498-3.781,4.271-16.69,3.86-44.988,2.965-17.452-.554-41.387-1.313-73.526-1.313-12.063,0-25.28.108-39.741.372-21.268-.518-43.375-.2-64.756.108-31.484.459-64.041.928-94.702-1.267-4.304-61.299-6.287-124.765-8.203-186.158-1.372-43.911-2.791-89.318-5.043-133.36-3.265-82.757-6.679-157.47-10.431-228.349,42.136-3.388,87.828-3.693,132.034-3.994,33.713-.226,68.575-.462,101.811-2.044,9.644.423,20.627-.339,31.243-1.075,15.174-1.057,30.851-2.142,42.862.208,4.84,76.403,9.447,152.861,13.902,226.815,5.273,87.563,10.726,178.112,16.559,268.228-.362,18.562,1.683,31.743,3.175,41.367ZM279.569,65.395c-.364-22.256,14.62-46.707,48.295-47.802,33.672,1.236,51.46,24.6,51.629,47.04.164,21.833-15.892,44.701-52.139,46.594-32.31-.003-47.42-23.756-47.784-45.832ZM326.361,142.167c.028,2.239.059,4.555.41,6.399.277,11.691,1.377,23.682,2.442,35.28,1.593,17.344,3.237,35.265,2.07,52.073-48.803.154-98.072-.354-145.718-.841-41.67-.426-84.732-.867-127.432-.867h-2.19c-5.751-.649-10.18-.339-13.738-.09-3.963.274-6.571.457-8.174-.957-3.665-3.232-4.363-15.872-6.23-49.659-1.4-25.344-3.506-63.42-8.074-119.561,38.822,28.845,79.561,55.73,118.981,81.749,13.774,9.09,27.516,18.162,41.051,27.214,8.767,7.42,30.284-8.118,55.181-26.098,19.85-14.335,40.367-29.153,52.781-30.374,9.47,8.2,21.902,13.597,36.965,16.049,1.583,2.221,1.629,6.012,1.675,9.683ZM258.783,110.086c-9.703,5.853-25.944,15.651-51.308,34.147-1.806,1.323-3.332,2.552-4.689,3.642q-9.885,7.946-51.462-20.237c-23.487-15.92-58.695-39.789-115.38-75.675,63.502,2.457,145.592,5.825,226.807,10.313,2.242,15.159,5.307,23.864,7.351,29.671q3.286,9.329-11.319,18.139Z" fill="rgba(0,0,0,1)" id="ADfnEoGxs04F4ddCXVwt" />
    <path d="M299.612,833.596c-9.854-67.952,39.176-55.621-126.835-45.584-26.686,2.84-53.493,3.641-79.71,7.436-10.753,9.954-4.635,31.207-5.582,41.303,5.954,88.972,5.025,175.64,15.454,263.029,43.727,6.464,96.153-5.566,142.041-6.142,14.12-4.499,57.676,3.094,69.921-10.762,1.025-83.19-11.667-164.524-15.289-249.28Z" fill="rgba(255,199,60,1)" id="JCve3Ys9VxrKrpfRlP1Hz" />
    <path d="M87.485,836.751c.947-10.096-5.171-31.349,5.582-41.303,26.216-3.794,53.024-4.596,79.71-7.435,166.011-10.037,116.981-22.368,126.835,45.584,3.622,84.756,16.314,166.09,15.289,249.28-12.245,13.855-55.801,6.262-69.921,10.762-45.889.576-98.314,12.606-142.041,6.142-10.428-87.389-9.499-174.057-15.454-263.029ZM301.506,1061.425c-8.522-85.101-7.889-180.728-21.156-261.314-60.9,5.564-126.922,4.033-183.131,10.978,25.589,343.868-10.944,265.493,80.808,267.809,44.959-7.075,132.433-1.966,123.479-17.473Z" fill="rgba(0,0,0,1)" id="wLMu-3yiKlbIfTHc5lDkF" />
    <path d="M266.495,686.159c-3.767,99.031-142.021,104.675-154.483,11.868-4.526-103.586,148.483-104.984,154.483-11.868Z" fill="rgba(255,255,255,1)" id="dbssDxeG9BmPeV4RXM6wC" />
    <path d="M183.827,744.863c63.116-7.238,67.069-37.653,4.364-45.493-53.822,13.443-64.687,41.041-4.364,45.493Z" fill="rgba(119,161,221,1)" id="jk0HuxtbWORvSz1PurIwt" />
    <path d="M187.498,682.888c25.725-1.758,26.791-26.461.332-26.498-22.197.069-23.062,26.752-.332,26.498Z" fill="rgba(119,161,221,1)" id="jy0YC6UdZbXcLi7KupdB8" />
    <path d="M266.495,686.159c-3.767,99.031-142.021,104.675-154.483,11.868-4.526-103.586,148.483-104.984,154.483-11.868ZM245.22,708.261c19.928-38.105-16.636-73.396-53.5-73.995-45.045-3.671-87.235,44.884-58.201,85.276,6.128-14.879,26.583-22.123,32.761-31.95-16.68-22.855.925-47.486,26.278-45.708,26.213,4.351,33.335,26.179,21.957,46.353,10.191,3.478,22.861,9.374,30.705,20.024ZM183.827,744.863c63.116-7.238,67.069-37.653,4.364-45.493-53.822,13.443-64.687,41.041-4.364,45.493ZM187.498,682.888c25.725-1.758,26.791-26.461.332-26.498-22.197.069-23.062,26.752-.332,26.498Z" fill="rgba(0,0,0,1)" id="fWOkPyG4-OwO1xWx6L8eZ" />
    <path d="M322.571,61.51c-37.224,38.233-4.983-22.466,7.613-31.282,14.83,2.796,4.947,26.889,6.337,38.086-1.18,57.934-21.259,36.638-13.95-6.804Z" fill="rgba(0,0,0,1)" id="jUdW5AmFHhHPxL5sAmiD" />
    <path d="M181.67,874.444c-12.983,3.503-59.598-.088-27.581-13.158,36.497,3.501,100.562-15.469,101.169,1.883,3.567,17.072-64.935,8.275-73.588,11.275Z" fill="rgba(0,0,0,1)" id="b-USst13c3ccOqmmLIzw4" />
    <path d="M213.895,921.92c5.002-.585,38.816-3.655,22.125,7.872-11.852-.577-65.888,12.426-52.029-3.714,6.529-5.792,19.834-2.532,29.909-3.351-.002-.269-.004-.538-.006-.807Z" fill="rgba(0,0,0,1)" id="Vv-Q0w8c4iNGKYqoFhf62" />
    <path d="M191.871,1038.002c-26.744-7.685,50.194-24.616,51.44-15.278-.176,10.561-43.685,12.169-51.44,15.278Z" fill="rgba(0,0,0,1)" id="R4sRDOdH8Q6jb38rbkrtN" />
    <path d="M234.489,969.454c27.402,9.006-44.379,17.537-49.443,12.857-1.961-15.266,40.797-9.841,49.443-12.857Z" fill="rgba(0,0,0,1)" id="JPj8fupLp2zebmPgL1ktJ" />
    <path d="M134.71,1042.166c-.082-4.151,1.038-7.537,4.718-7.943,49.459-10.509,6.295,58.628-4.718,7.943ZM140.969,1041.916c.125,10.085,13.976,15.358,14.515,3.049-3.721-7.555-7.277-1.213-14.515-3.049Z" fill="rgba(0,0,0,1)" id="wBYJMa0f9mB_HZNjVrUfq" />
    <path d="M140.916,978.518c32.084-3.388,12.361,45.491-8.22,21.395-3.431-6.113-4.241-24.97,8.22-21.395ZM144.492,986.47c-9.66-.473-10.068,10.821.152,11.852,6.399-.562,11.447-11.418-.152-11.852Z" fill="rgba(0,0,0,1)" id="sEvZzZ-w7qKJ9qz8Lzys2" />
    <path d="M139.345,947.473c-13.149.428-15.995-18.808-4.306-26.117,23.302-8.589,25.91,24.138,4.306,26.117ZM138.524,938.7c10.168-.772,12.211-10.669-.344-9.416-3.892,2.159-7.878,9.165.344,9.416Z" fill="rgba(0,0,0,1)" id="wkhOGGNatYCbrdHEOBwjd" />
  </g>
</g></g><g transform="translate(1289 302) rotate(0 323 709.5) scale(1 1)" opacity="1"><g clip-path="url(#assetClipPath_7Mo3zbF9)" transform="scale(1.0645959232238469 1.0645959232238469)"><defs />
  <g id="UPLOAD9502">
    <path d="M81.16,565.882l.713-.002c3.84,93.338.617,236.96,10.49,228.745,97.379-4.69,192.01-6.131,288.746-10.167-2.34-85.916-3.318-179.177-11.69-262.159-59.62.235-120.818-2.963-181.076,3.677-36.534,4.703-24.357-37.733-27.555-61.456-.368-44.987-.921-84.631-1.59-129.427-3.056-36.728-10.574-87.806,39.746-76.905,40.977.013,83.029-.242,125.186.083,13.782.719,24.994-.567,36.807-2.991,2.83-20.168-1.508-40.158-1.23-61.41-1.631-48.677-2.8-91.977-5.124-141.227-3.173-11.307,6.754-31.484-10.196-29.364-94.887,1.345-184.787-.985-280.143.243,1.86,177.244,13.807,362.211,16.916,542.358Z" fill="rgba(255,160,193,1)" id="Kpj80mZuHjQfMeV7IpWCF" />
    <path d="M300.009,1125.677c-63.849,2.666-129.412,5.18-194.211,7.99-16.601,3.916-56.115-6.243-52.613,12.14,2.828,228.891-29.126,170.176,76.038,170.826,492.388-39.781,423.007-20.917,427.12-43.926-7.768-53.03-4.245-112.029-16.984-158.189-80.7,3.615-158.783,7.58-239.349,11.159Z" fill="rgba(255,255,255,1)" id="Tm-vU5S6YKMiwr_j56Px0" />
    <path d="M374.908,276.634c-185.605,3.376-207.898-16.754-203.877,22.29,5.088,40.584-5.24,114.497,9.632,110.433,37.974-.473,74.24-.531,112.832-2.339,166.974-9.731,304.112,15.889,290.525-6.868-8.019-93.109,6.861-127.255-31.645-121.682-60.707-.535-117.324-1.168-177.468-1.834Z" fill="rgba(45,136,26,1)" id="ZqPs603VQebiO4QF6f32e" />
    <path d="M174.476,439.905c.267,0,.534-.001.802-.002,1.793,8.88-6.395,23.519,11.591,19.307,93.184-1.993,187.454-3.418,282.048-4.083,131.55-4.851,119.336,11.726,116.358-27.255-3.35-2.29-4.88-.38-11.954-.886-117.464-1.134-229.004-6.392-346.379-3.767-47.931,1.11-54.877-10.18-52.466,16.687Z" fill="rgba(119,161,221,1)" id="y-sLaj_RdO3mQxC0nFAm0" />
    <path d="M488.678,499.381c0,.056,0,.112,0,.168,56.309-5.284,109.404,14.191,98.75-28.714-3.151-1.891-1.099-.691-8.033-.961-312.489,6.937-414.481-7.454-403.718,9.595,3.494,9.869-7.182,29.686,7.964,24.193,103.542-1.627,201.603-2.824,305.037-4.281Z" fill="rgba(45,136,26,1)" id="Mj0OttqLB2mwRj3z5nRVK" />
    <path d="M39.585,1005.616c43.424-3.324,30.311-54.196-6.154-50.041-33.613,6.511-22.992,50.77,6.154,50.041Z" fill="rgba(255,199,60,1)" id="lg8JcXWEVTwpld8rCmmIk" />
    <path d="M488.737,521.231c19.014-.344,38.676-.7,59.008-.79,28.655.423,43.568-2.909,51.496-11.463,9.79-10.565,8.195-28.145,5.55-57.269-.472-5.209-.977-10.778-1.454-16.726-3.15-37.322-3.95-66.598-4.591-90.121-2.403-87.987-3.488-88.807-116.611-87.476-25.352.298-56.9.659-95.497.108-4.812.387-7.246.203-8.136-.623-.785-.723-.785-2.514-.787-5.225,0-.995,0-2.108-.038-3.314-.698-61.591-3.273-123.116-5.761-182.614-.752-17.936-1.503-35.927-2.211-53.973-.005-1.39-.59-2.662-1.739-3.781C357.927-1.81,298.313-.468,229.281,1.091c-41.667.939-84.747,1.911-121.969.634-14.469,2.229-25.416.687-33.413-.439-7.702-1.088-13.284-1.87-17.064,1.536-7.384,6.661-6.592,28.016-3.965,98.772,1.767,47.615,4.44,119.571,5.866,224.142.775,28.499,1.526,56.851,2.275,85.124,2.403,90.698,4.889,184.481,8.026,277.646,1.149,32.728,2.085,60.206,2.829,91.006.28,3.501.262,7.159.244,10.696-.046,9.3-.09,18.083,5.35,22.479,3.634,2.934,9.285,3.504,17.013,1.777,47.633-.818,97.903-2.216,153.676-4.273l.254.121.023-.003c2.952,2.739,2.996,22.338,3.032,39.628.033,14.528.064,29.55,1.485,39.387.105,8.097.695,16.536,1.27,24.698.8,11.406,1.626,23.192,1.149,34.329-3.311,1.698-7.487,1.711-11.893,1.724-3.442.01-7.002.021-10.175.816-21.476,1.821-43.996,4.809-65.772,7.702-29.879,3.965-60.763,8.067-88.32,8.995-8.472-21.366-29.763-28.796-46.209-26.649-14.407,1.901-30.566,11.935-32.703,34.37-2.19,18.208,8.249,36.691,25.382,44.945,14.994,7.22,31.087,4.281,42.967-7.784,6.92-5.902,8.746-11.999,10.213-16.898,2.334-7.79,3.852-12.935,25.711-11.873,23.097-1.075,47.387-3.814,70.879-6.461,27.052-3.05,55.012-6.202,80.974-6.771,1.621,21.135,2.593,42.016,3.532,62.225.985,21.243,2.006,43.208,3.776,64.89.09,1.549.326,2.909.534,4.109.233,1.359.5,2.898.167,3.281-.09.097-.495.398-2.342.354-31.933,2.229-63.807,3.455-94.632,4.642-37.301,1.434-75.875,2.919-115.01,6.189l-.308.062c-11.968,4.009-11.814,27.278-11.634,54.217.085,12.904.174,26.244-1.121,38.153-.844,25.931-1.4,49.464-1.99,74.38-.308,13.025-.621,26.213-.98,40,.023,1.526.013,2.906.003,4.165-.051,6.535-.082,10.48,5.03,14.871l.392.336.513-.018c59.316-2.216,115.277-6.351,174.524-10.729,31.825-2.349,64.731-4.781,98-6.866,24.031-1.79,47.653-3.465,71.13-5.127,50.593-3.586,98.38-6.974,149.016-11.37,3.083-.2,5.933-.349,8.562-.485,13.22-.69,21.196-1.108,25.598-6.266,6.161-7.225,4.453-23.228.326-61.886-2.452-22.946-5.807-54.371-8.934-96.956-1.654-9.739-1.801-17.652-1.919-24.013-.172-9.167-.282-15.223-4.64-19.275-8.205-7.625-31.12-6.397-99.144-2.737-39.21,2.108-92.906,4.996-167.471,7.536l-.28.041c-2.19.554-3.416.534-4.219-.072-3.17-2.396-3.552-15.333-4.471-46.589-1.182-40.287-3.383-115.162-13.897-247.208,36.768-4.027,63.674-3.047,83.375-2.332,21.981.795,35.234,1.282,42.649-6.294,10.206-10.426,8.762-35.378,5.279-95.658-2.373-41.085-5.625-97.354-6.933-176.371.151-3.268-.19-5.158-.395-6.287-.069-.387-.149-.828-.144-.911.08-.123.421-.369,1.016-.728,35.406.646,67.916.062,99.365-.505ZM555.81,1280.152c.413,1.339.651,2.183.354,2.611-1.813,2.621-18.839,3.676-69.386,6.8-57.808,3.575-165.406,10.229-357.548,25.757-23.141-.092-39.33,2.516-51.226,4.46-11.398,1.86-18.275,2.983-21.75-.082-5.125-4.517-4.586-19.532-3.409-52.432.934-26.067,2.347-65.459,1.631-121.705-.467-2.455-.1-4.348,1.123-5.781,2.947-3.455,10.437-4.183,18.988-4.183,3.134,0,6.415.097,9.662.195,8.336.251,16.213.485,21.607-.813,38.763-1.68,78.327-3.278,116.588-4.819,26.042-1.052,51.97-2.098,77.619-3.168l.005-.003c41.395-1.839,82.834-3.814,122.91-5.722,38.24-1.824,76.514-3.647,115.39-5.389,7.292,27.029,9.064,57.903,10.937,90.564,1.262,21.979,2.565,44.704,5.709,66.249-.521,3.193.239,5.653.795,7.461ZM91.779,793.391l-.187.156c-4.594-4.64-5.42-67.698-6.153-123.413-.469-35.734-.954-72.684-2.255-104.31l-.054-1.272-.68.008c-1.472-84.139-4.912-170.592-8.236-254.213-3.755-94.337-7.633-191.871-8.644-285.528,46.466-.58,92.342-.326,136.72-.072,46.168.259,93.909.531,142.258-.164,3.25-.408,5.474.028,6.825,1.321,2.519,2.411,2.075,7.864,1.603,13.638-.374,4.609-.762,9.375.3,13.312,1.79,37.914,2.888,72.135,4.053,108.362.344,10.708.693,21.563,1.064,32.638-.11,8.474.513,16.805,1.113,24.862.913,12.199,1.775,23.741.254,35.465-12.848,2.573-23.541,3.409-35.621,2.778-28.899-.223-58.039-.169-86.225-.123-13.027.023-26.021.028-38.83.041-14.135-3.039-24.918-1.377-32.061,4.919-14.474,12.766-11.935,41.552-9.693,66.952.192,2.188.382,4.345.554,6.366.741,49.621,1.239,86.704,1.603,129.582.749,5.574.639,12.158.521,19.127-.262,15.266-.528,31.051,8.3,38.951,4.673,4.181,11.283,5.65,20.178,4.509,44.632-4.919,90.316-4.427,134.504-3.945,14.864.159,30.243.326,45.24.28,6.866,68.714,8.695,144.176,10.462,217.163.346,14.281.69,28.447,1.067,42.418-42.567,1.767-85.417,3.057-126.873,4.304-52.35,1.577-106.485,3.206-160.589,5.812l-.518.077ZM584.39,450.666c-2.739,3.016-11.747,2.857-31.482,2.493-17.659-.323-44.345-.811-84.003.654-90.033.634-184.932,2.006-282.066,4.083l-.272.036c-4.46,1.041-7.464.934-8.916-.331-1.842-1.608-1.488-5.361-1.113-9.334.277-2.929.564-5.956.026-8.623l-.213-1.054h-.672c-.575-6.946-.475-11.658,1.495-13.671,2.314-2.36,8.105-1.967,17.688-1.311,7.695.523,18.242,1.239,32.108.923,76.642-1.713,152.438-.031,225.74,1.598,39.256.872,79.846,1.775,120.515,2.165,2.965.215,5.04.013,6.553-.133,1.924-.192,2.916-.282,4.24.469.28,3.506.628,6.523.936,9.2.777,6.761,1.247,10.842-.564,12.835ZM583.362,403.987c-3.84,6.425-38.843,4.866-87.292,2.706-33.108-1.475-73.921-3.296-119.181-3.296-26.511,0-54.556.626-83.454,2.311-31.31,1.467-60.552,1.772-91.513,2.098-7.048.074-14.133.149-21.273.239l-.331.046c-.849.228-1.506.118-2.129-.364-5.261-4.078-4.873-29.317-4.499-53.725.298-19.47.608-39.602-1.352-55.212-.975-9.47-.226-14.369,2.673-17.472,6.261-6.707,24.315-6.094,63.856-4.76,31.366,1.062,74.323,2.511,136.045,1.39l9.731.108c56.726.626,110.304,1.218,167.919,1.713,8.862-1.288,14.751-.377,18.542,2.837,7.7,6.538,8.02,23.482,8.557,51.55.333,17.536.749,39.359,3.052,66.108l.18.559c1.18,1.978.646,2.87.469,3.165ZM183.193,502.428c-2.732.987-4.66,1.139-5.574.408-1.616-1.285-1.059-5.822-.523-10.211.559-4.555,1.19-9.718-.18-13.594l-.128-.262c-.823-1.306-.526-1.836-.416-2.037,2.085-3.732,19.97-4.694,52.468-4.694,14.546,0,32.023.192,52.311.416,64.107.71,160.986,1.78,298.191-1.267,2.788.113,4.181-.013,5.017-.09.752-.059.831-.067,1.921.58,2.08,8.705,1.475,14.933-1.847,19.026-6.933,8.549-25.328,7.895-48.623,7.071-13.968-.495-29.75-1.057-45.82.336v-.062l-1.331.018c-35.68.503-70.72.975-105.564,1.444-64.723.87-131.649,1.772-199.475,2.837l-.428.08ZM63.752,990.733c-3.637,7.826-12.24,12.645-24.231,13.571-14.915.349-24.267-11.552-25.503-22.948-1.064-9.793,3.542-21.368,19.56-24.474,1.37-.156,2.719-.233,4.045-.233,9.582,0,17.888,4.029,23.189,11.386,5.058,7.012,6.184,15.713,2.939,22.699Z" fill="rgba(0,0,0,1)" id="HxJbnpgV9nctn5DUUi-Bs" />
    <path d="M211.394,582.467c4.392-1.259,12.518-1.893,14.948-7.746.805-3.802.117-6.402,4.657-6.244,4.31.325,3.401,7.286,9.057,6.356,11.717-2.993,41.058,6.469,31.892,23.134-5.331,5.121-6.957-5.618-13.487-6.461-23.569-5.813-20.501,4.254-18.327,22.65,3.326,10.56-3.729,30.685,6.621,32.387,68.394,9.053,58.608,72.458,6.796,92.805-5.857.652-1.778,19.694-11.893,14.703-6.221-16.842-17.702-3.546-27.632.367-9.636-12.369-25.325-10.432-37.953-21.363-10.572-2.472-19.086-27.175-1.815-21.272,6.206,2.498,33.689,21.842,34.175,9.713-.194-17.476-3.302-41.66-8.515-57.559-46.72-12.768-37.847-48.464-7.245-69.509,10.396-5.466,5.691-9.053,8.681-20.794,3.787-3.837,8.762,3.001,10.04,8.832ZM242.396,679.18c1.465,9.553-.457,33.51,7.007,38.57,36.888-17.018,39.806-45.46-.401-50.747-8.414-2.77-6.548,4.403-6.607,12.177ZM222.569,665.65v-.033c-13.898-2.824.227,27.355-.706,36.489,1.983,8.098-1.663,18.114,2.267,23.416,2.865-.403,9.953.235,9.929-5.388-6.624-14.929,1.576-58.453-11.491-54.483ZM226.543,595.491c-21.442,3.684-9.127,28.138-11.075,47.279,22.379,19.378,9.732-34.666,11.075-47.279ZM200.103,609.502c-19.493,13.553-29.298,32.588,1.002,34.403.434-10.407,2.577-23.719-1.002-34.403Z" fill="rgba(0,0,0,1)" id="oxuRYbL0Pd8V9p7Trmy38" />
    <path d="M212.261,48.573c-14.138-3.334-20.085,23.411-32.222,38.651-10.229,18.559-27.398,34.067-28.143,54.585,18.902,34.201,34.937,70.707,66.572,93.56,3.051.288,5.002-2.405,5.936-4.861,6.928-37.869,27.452-70.418,41.632-104.142-16.307-26.823-34.634-54.436-53.775-77.793Z" fill="rgba(119,161,221,1)" id="a882nBMrc5CjeqeODRyQR" />
    <path d="M266.036,126.366c-14.181,33.725-34.704,66.273-41.632,104.142-.935,2.456-2.885,5.149-5.936,4.861-31.635-22.853-47.67-59.36-66.572-93.56.745-20.518,17.914-36.026,28.143-54.585,12.137-15.239,18.084-41.984,32.222-38.651,19.14,23.357,37.468,50.97,53.775,77.793ZM166.268,141.108c46.619,86.909,40.97,70.412,40.456,11.59-6.528-8.351-27.892-9.009-40.456-11.59ZM167.961,129.907c12.063-1.058,27.084,6.467,37.214,4.776-.268-20.905,1.537-43.515-2.808-64.242-10.682,20.456-22.909,38.909-34.405,59.466ZM212.578,71.867c3.9,19.582-2.455,65.656,7.009,63.146,5.497-5.512,18.875-9.244,24.5-15.772-7.753-17.014-17.983-31.706-31.509-47.373ZM217.231,207.415c10.009-24.186,20.019-48.371,30.476-73.638-9.117,4.981-23.26,10.919-30.597,19.845-.588,17.63-3.033,35.191.121,53.793Z" fill="rgba(0,0,0,1)" id="yvsTf9ub3GLtTT_Bl-X-2" />
    <path d="M265.007,1152.511c-28.404-22.958-53.089,19.497-70.379,32.219-17.405-16.468-36.067-27.792-58.645-28.446-54.126-.578,24.935,126.119,57.075,140.056,15.756,3.864,54.243-52.69,68.03-84.319,5.338-19.596,18.76-41.756,3.919-59.511Z" fill="rgba(255,160,193,1)" id="NqQsPz8Gt_AarUvwAnnnk" />
    <path d="M135.982,1156.285c22.578.653,41.24,11.978,58.645,28.446,17.29-12.723,41.975-55.177,70.379-32.219,14.841,17.754,1.419,39.915-3.919,59.511-13.788,31.629-52.275,88.183-68.031,84.319-32.139-13.936-111.201-140.634-57.075-140.056ZM137.956,1174.964c-25.371-1.965,54.399,121.514,61.66,96.503,17.817-14.268,79.713-113.043,45.911-104.555-8.535,2.403-18.116,7.526-24.758,15.953-8.466,8.093-14.296,19.237-23.032,27.898-14.389-17.04-33.759-36.127-59.782-35.8Z" fill="rgba(0,0,0,1)" id="OQVN49Mn2o4ewypX4loRQ" />
    <path d="M353.438,1140.157c-15.374-.638,6.015,41.485,5.372,79.906,7.808,59.81-3.174,100.04,52.542,24.402,5.999-8.093,12.741,3.774,19.725,6.604,48.215,37.402,41.128,45.656,49.565-82.784.677-46.824,9.036-37.554-127.204-28.128Z" fill="rgba(255,92,51,1)" id="F-TVWYTKTTjn72l8n2w53" />
    <path d="M480.642,1168.285c-8.437,128.44-1.35,120.186-49.565,82.784-6.985-2.83-13.726-14.697-19.725-6.604-55.716,75.638-44.734,35.408-52.542-24.402.642-38.421-20.746-80.545-5.372-79.906,136.24-9.426,127.882-18.696,127.204,28.128ZM459.504,1254.3c4.827-32.422,8.901-71.851,5.603-104.14-32.43-.371-66.277,4.179-99.784,3.522-15.987-3.591.319,21.544-.669,30.756,4.79,26.671,5.672,52.587,10.4,80.193,48.067-57.757,28.267-49.243,84.45-10.33Z" fill="rgba(0,0,0,1)" id="tOGb_9BC8L3nhCrW1WhLw" />
    <path d="M439.54,308.378c-17.868-2.981-4.081,53.395-8.179,73.412-.309,14.824,38.149,5.652,56.715,8.028,69.409-4.39,61.825,17.333,65.103-74.904,2.085-16.62-78.617-4.922-113.638-6.536Z" fill="rgba(119,161,221,1)" id="YNL10OeUYI-ffZ0K5-oOl" />
    <path d="M488.076,389.818c-18.567-2.376-57.024,6.796-56.716-8.028,4.098-20.016-9.689-76.392,8.18-73.412,35.021,1.613,115.723-10.084,113.638,6.536-3.278,92.237,4.306,70.514-65.103,74.904ZM492.066,324.769c0,.076,0,.153,0,.229-62.305.759-49.348-10.491-48.703,44.608,3.312,8.609,42.121.036,50.776,2.15,56.963-.461,40.091,4.024,45.019-45.451-10.838-4.764-32.662.041-47.092-1.536Z" fill="rgba(0,0,0,1)" id="oNf2GNUAOc4X-IEPQi8ti" />
  </g>
</g></g><g transform="translate(574 386) rotate(0 354.5 680.5) scale(1 1)" opacity="1"><g clip-path="url(#assetClipPath_NEW_CRbb)" transform="scale(1.055716204424776 1.055716204424776)"><defs /><path d="m668.478 1146.041c6.818-193.378-7.74-381.773-9.774-575.113.367-55.157 1.772-104.433 3.662-159.023.582-35.105 6.653-70.081-7.612-102.999-20.062-30.949 17.79-15.075-428.873-26.968-232.026 4.568-240.248-66.881-214.435 275.908 1.697 202.183 12.032 404.278 16.46 605.267.772 109.03 11.281 126.797 156.196 124.478 124.6-4.373 245.474-10.799 369.866-18.279 26.404-2.496 48.658.399 74.612-.757 54.952-18.041 37.817-64.548 39.898-122.513z" fill="rgba(119,161,221,1)" id="Fh8eId2T1SBPa2DrwjgMB" /><path d="m669.793 1146.086c4.291-121.728.036-243.72-4.076-361.693-2.432-69.719-4.945-141.814-5.699-213.457.364-54.681 1.726-103.104 3.663-159.011.123-7.474.503-15.066.872-22.41 1.352-27.021 2.747-54.963-8.695-81.326-1.211-1.865-2.208-3.56-3.114-5.102q-9.444-16.046-120.433-17.052c-62.348-.567-156.57-1.421-306.455-5.412-39.913.798-73.708-.7-100.857-1.898-54.458-2.406-87.325-3.852-105.661 15.066-26.993 27.847-21.42 101.901-9.205 264.062 1.011 120.399 5.148 242.648 9.152 360.872 2.714 80.182 5.52 163.1 7.31 244.405.392 55.394 3.781 84.886 21.961 102.65 19.055 18.621 55.017 23.318 113.079 23.318 7.161 0 14.671-.072 22.515-.197 109.465-3.842 223.547-9.48 369.944-18.283 14.977-1.418 28.927-1.082 42.413-.757 10.288.249 20.93.503 32.133.003l.351-.064c43.983-14.438 42.767-46.863 41.226-87.912-.428-11.45-.875-23.289-.423-35.804zm-611.436 101.907c-13.786-16.803-13.697-41.221-13.609-64.836.026-7.22.051-14.04-.321-20.56-2.237-94.563-5.125-190.383-7.915-283.05-3.393-112.635-6.902-229.108-9.28-344.388-4.617-46.707-8.99-97.459-9.736-152.032.38-7.967-.056-15.482-.477-22.751-.89-15.364-1.729-29.873 5.745-44.93 7.669-19.724 21.974-19.209 101.324-16.336 40.903 1.483 96.92 3.509 177.546 3.747 110.55 1.806 218.261 3.84 319.09 5.766 1.408.046 2.716.074 3.935.097 8.777.174 12.06.239 15.705 7.115 9.234 25.829 7.307 65.556 4.645 120.546-1.78 36.776-3.799 78.461-2.983 126.44.677 76.496 3.25 153.769 5.74 228.497 3.691 110.791 7.505 225.355 5.191 339.191-1.026 13.322.167 27.409 1.321 41.028 1.962 23.166 3.991 47.112-4.986 67.508-9.554 8.439-23.807 7.628-37.594 6.838-6.512-.372-12.663-.721-17.99-.067-46.107 2.55-92.539 4.771-137.443 6.923-78.525 3.76-159.725 7.649-240.237 13.355-16.133-1.18-32.823-.693-48.962-.226-37.412 1.098-76.075 2.219-108.709-17.877z" fill="rgba(0,0,0,1)" id="pPUrl1K2Lb3zMmcsYdeQb" /><path d="m326.577 704.271c54.074-2.033 105.682-3.158 160.379-5.256 17.031-4.08 85.646 8.129 89.504-20.197 18.644-138.871 37.649-124.54-325.342-126.71-40.648-.082-76.536 1.5-116.89 2.37-61.537-9.463-50.584 23.676-47.526 127.888 5.165 40.47.31 24.546 239.875 21.905z" fill="rgba(255,255,255,1)" id="LKNlEUqzhbKOzqt0ApcLJ" /><path d="m222.542 783.141c-135.852 9.81-138.78-40.761-126.941 139.3 4.467 29.503 26.504 14.034 238.206 12.463 58.835-2.13 114.242-3.413 173.976-5.684 24.846-4.461 76.225 10.104 77.432-26.887 15.889-130.292 40.436-119.265-362.674-119.191z" fill="rgba(255,255,255,1)" id="TwRk9yCXzMrVMoTVLLMu" /><path d="m326.577 704.271c-239.565 2.641-234.71 18.565-239.874-21.905-3.058-104.212-14.011-137.35 47.526-127.888 40.354-.87 76.242-2.452 116.889-2.37 362.991 2.17 343.986-12.16 325.342 126.71-3.858 28.326-72.473 16.117-89.504 20.197-54.696 2.098-106.305 3.222-160.379 5.256zm-20.592-134.973c-259.713 1.883-204.812-36.424-206.937 107.797-.911 13.679 4.479 19.415 20.575 19.237 213.184-14.481 434.997-9.625 442.593-24.459 4.52-27.532 11.615-57.338 6.338-83.875-18.51-14.425-49.55-9.984-72.813-13.552-64.259-4.12-125.515-6.183-189.756-5.149z" fill="rgba(0,0,0,1)" id="G3gYGtCirErpyZmuo2nfr" /><path d="m333.808 934.904c-211.702 1.571-233.738 17.04-238.206-12.463-11.839-180.061-8.912-129.49 126.941-139.3 403.11-.073 378.562-11.1 362.674 119.192-1.207 36.991-52.586 22.426-77.432 26.887-59.734 2.271-115.141 3.555-173.976 5.684zm-22.489-134.978c-255.149 1.019-202.203-31.327-205.48 91.237 3.022 12.699-5.388 31.266 10.661 34.359 275.537-10.931 408.279-9.1 452.119-21.536 5.896-20.182 19.508-92.105-2.421-91.417-84.221-13.339-167.961-12.496-254.879-12.643z" fill="rgba(0,0,0,1)" id="gHguRWwzm--Oy3BSVy026" /><path d="m355.514 976.131c-151.631 6.219-164.354 234.48-1.356 241.419 160.634-6.153 174.009-237.334 1.356-241.419z" fill="rgba(255,92,51,1)" id="R5PsgL51m-xcJwmLnF643" /><path d="m354.158 1217.55c-162.997-6.939-150.275-235.2 1.356-241.419 172.652 4.085 159.278 235.266-1.356 241.419zm18.543-217.486c-133.545-5.724-158.456 150.877-54.783 187.732 153.128 41.902 204.473-166.682 54.783-187.732z" fill="rgba(0,0,0,1)" id="oeuT0i3NdA8cEasd4lpnQ" /><g fill="rgba(45,136,26,1)" id="BRNAaQn1bAH34BahRnLiJ"><path d="m207.157 614.356c-27.992 6.034-29.599 43.84-.772 46.752 31.704-3.366 38.144-44.955.772-46.752z" fill="rgba(45,136,26,1)" id="A_um6fveut5P7pdqyiegJ" /><path d="m312.483 614.214c-23.985 7.128-19.344 46.451 6.827 45.098 38.65.247 27.941-55.64-6.827-45.098z" fill="rgba(45,136,26,1)" id="oCQLL3ungweColC-W4MD5" /><path d="m435.061 616.84c-24.307 1.684-30.265 42.221-1.126 42.078 27 1.471 29.996-43.667 1.126-42.078z" fill="rgba(45,136,26,1)" id="klrOBLPMnJ3CDZRVNmqxo" /></g><path d="m206.385 661.107c-28.827-2.912-27.22-40.717.772-46.752 37.372 1.797 30.931 43.386-.772 46.752zm2.496-12.789c22.465-2.155 11.414-24.665-5.364-23.931-14.754 6.245-7.657 22.105 5.364 23.931z" fill="rgba(0,0,0,1)" id="Gg4XLD_zoVcl7FqG86WVr" /><path d="m319.31 659.313c-26.171 1.352-30.812-37.971-6.827-45.098 34.768-10.542 45.477 45.346 6.827 45.098zm2.751-12.016c21.627 1.41 9.818-24.398-6.048-25.104-16.463 2.907-9.659 27.057 6.048 25.104z" fill="rgba(0,0,0,1)" id="RqiU_K1y-VRE0ytPiRcAF" /><path d="m433.934 658.919c-29.138.143-23.181-40.394 1.126-42.079 28.87-1.588 25.874 43.55-1.126 42.079zm2.234-12.247c12.404 1.039 10.371-15.322.366-19.408-14.19-3.293-16.603 20.257-.366 19.408z" fill="rgba(0,0,0,1)" id="OqTD_fAOr9tZSCk2deZoa" /><path d="m220.428 845.009c39.939-48.92 40.868-26.613 6.795 8.135 1.792 13.484 33.221 14.381 35.582 30.937-6.166 16.055-28.861-12.277-39.131-13.716-.243 4.968 3.578 11.385.276 18.273-3.601 4.656-8.012 4.246-8.429-3.631-.74-34.958-13.116 15.505-27.701 11.857-8.948-14.572 26.492-30.886 18.831-40.792-7.242-5.3-38.705-30.654-16.204-26.745 26.971 17.988 17.046 19.998 20.602-9.385 8.101-5.416 6.475 18.343 9.378 25.067z" fill="rgba(0,0,0,1)" id="YRynSxu6mytOqdmU4lFo" /><path d="m342.552 862.139c-1.236 8.139 5.842 18.965.545 25.744-15.478 12.65-6.215-11.885-10.073-22.071-34.409 46.915-35.757 21.569-4.393-10.683-7.879-7.062-30.55-9.73-30.152-20.994 2.563-3.149 3.083-3.666 10.147-.438 7.166.613 22.294 15.811 23.548 6.412-1.684-5.698-3.902-39.986 8.624-20.015-2.981 2.98-4.535 18.188 1.446 19.992 7.312-4.142 18.389-27.974 26.071-21.772 6.756 9.146-30.686 29.432-18.562 34.165 10.108 8.183 32.417 9.018 31.126 23.709-9.103 7.969-26.587-10.661-38.326-14.049z" fill="rgba(0,0,0,1)" id="eCvrOe3dAjSpkY8bwGtdO" /><path d="m444.852 853.071c-24.577-10.411-32.466-29.945.236-13.254.129-31.9 7.633-26.364 10.161 3.612 9.001-5.544 14.338-14.663 22.578-23.836 16.854-3.547-10.562 24.902-13.481 30.255 5.214 7.044 16.037 9.037 23.839 15.274 10.645 22.996-22.471 3.12-30.423-4.343 2.575 22.113-11.99 43.177-10.071 4.58-36.323 41.844-32.732 15.096-2.838-12.288z" fill="rgba(0,0,0,1)" id="voMcUvtLJUsx0B2YSk90Y" /><path d="m411.897 1062.603c-50.635-11.983-29.428-29.864-65.582 35.203-15.755-11.854-13.085-34.022-35.806-12.685-28.615 17.462 18.65 69.037 37.153 83.112 6.051-3.879 92.395-95.924 64.235-105.63z" fill="rgba(45,136,26,1)" id="JPRi4fX1WbQCw3eiBy2" /><path d="m346.314 1097.806c36.154-65.067 14.947-47.186 65.583-35.203 28.16 9.706-58.184 101.751-64.235 105.63-18.503-14.075-65.769-65.65-37.154-83.112 22.722-21.337 20.051.831 35.806 12.685zm31.929-29.114c-10.174 12.302-15.47 31.357-25.672 45.55-15.271 16.787-22.558-32.839-36.22-15.47-14.481 4.367 28.496 49.1 31.149 46.739 15.948-22.309 37.415-40.518 48.531-66.288-4.243-4.005-11.64-5.838-17.788-10.531z" fill="rgba(0,0,0,1)" id="pICuzqz5_h1rbN3JpvqUz" /><path d="m197.959 172.246c7.818-29.611-1.87-66.267 18.974-93.517 76.276-62.356 224.916-9.973 239.173 88.134 45.647-15.06 67.284 6.211 68.389 55.144 2.328 30.865-13.809 68.099-48.987 63.227-19.623-9.009-14.361 2.729-18.133 16.935-2.292 13.436-2.928 15.305 11.97 17.234 26.735 3.678 50.349 15.194 72.532 30.591 3.701 2.655 3.16 9.58 8.797 5.941 14.152-24.724 24.621-54.708 28.684-84.581 23.685-240.589-269.113-328.047-420.967-174.274-69.903 67.074-93.749 179.039-48.442 264.419 15.886-10.83 31.771-30.173 50.457-39.528 39.733-22.537 40.437-4.641 33.558-51.022-15.28 4.565-34.874 3.878-45.376-12.557-28.945-35.235-1.541-124.92 49.372-86.148z" fill="rgba(45,136,26,1)" id="z4GhtAHw_rMVF5z2LRdHC" /><path d="m216.01 121.647c-6.009 87.816-35.386 246.325 80.314 264.863 54.821 9.1 121.749 10.989 138.065-52.23 12.156-42.64 17.046-82.955 13.133-128.297-1.651-8.922-.77-18.065-5.656-25.895-14.655.882-25.62-3.982-39.454-11.432-15.919 24.283-44.495 1.55-63.835-8.57-8.585 67.009-108.749-10.326-122.567-38.439z" fill="rgba(255,192,161,1)" id="QxuHqbTDfybfMn3C0It24" /><path d="m319.043 489.969c87.175 1.13 171.917-43.929 221.15-116.243-6.339-20.002-61.435-39.886-73.915-41.731-9.654-1.647-12.284-6.64-15.324 6.64-21.208 69.89-60.14 72.462-116.217 73.523-73.447-1.822-111.316-31.544-131.457-90.547-16.914-8.056-86.193 43.25-87.687 52.222 39.877 75.086 120.659 115.125 203.449 116.136z" fill="rgba(255,199,60,1)" id="Cr_jgd2cwAAgRBkhgt_1d" /><path d="m302.161 167.008c54.891-2.255-22.694-53.255 1.38-57.03 22.422 3.244 28.621 30.21 48.848 39.355 10.356 4.858 23.863 17.635 33.23 7.306-4.696-10.924-17.366-16.037-18.746-30.239 10.052-16.649 29.077 22.753 39.939 26.027 7.572 6.358 39.205 18.102 27.787-1.502-39.129-113.189-265.63-82.683-202.797-29.285 18.528 21.749 41.508 41.185 70.36 45.368z" fill="rgba(255,92,51,1)" id="QCAZmi0TNOdcTaJ5cZ1mM" /><path d="m511.079 225.747c3.924-34.296-22.747-63.388-50.782-42.401 4.316 25.933 4.461 54.174 4.762 81.276 26.623 18.613 49.745-12.424 46.021-38.875z" fill="rgba(255,192,161,1)" id="wmWJ2Oii8jVtEGCoKefd-" /><path d="m195.168 220.357c14.261-65.488-54.265-52.207-46.297 3.522.719 25.162 22.671 43.758 45.256 28.718 3.131-9.062.061-20.858 1.041-32.239z" fill="rgba(255,192,161,1)" id="JBOiMekgz9ZwYfjrL-lAR" /><path d="m597.162 242.182c-11.907 337.331-498.475 364.381-525.791 31.906-1.147-349.838 508.212-369.461 525.791-31.906zm-399.203-69.936c7.818-29.611-1.87-66.267 18.974-93.517 76.276-62.356 224.916-9.973 239.173 88.134 45.647-15.06 67.284 6.211 68.389 55.144 2.328 30.865-13.809 68.099-48.987 63.227-19.623-9.009-14.361 2.729-18.133 16.935-2.292 13.436-2.928 15.305 11.97 17.234 26.735 3.678 50.349 15.194 72.532 30.591 3.701 2.655 3.16 9.58 8.797 5.941 14.152-24.724 24.621-54.708 28.684-84.581 23.685-240.589-269.113-328.047-420.967-174.274-69.903 67.074-93.749 179.039-48.442 264.419 15.886-10.83 31.771-30.173 50.457-39.528 39.733-22.537 40.437-4.641 33.558-51.022-15.28 4.565-34.874 3.878-45.376-12.557-28.945-35.235-1.541-124.92 49.372-86.148zm18.051-50.599c-6.009 87.816-35.386 246.325 80.314 264.863 54.821 9.1 121.749 10.989 138.065-52.23 12.156-42.64 17.046-82.955 13.133-128.297-1.651-8.922-.77-18.065-5.656-25.895-14.655.882-25.62-3.982-39.454-11.432-15.919 24.283-44.495 1.55-63.835-8.57-8.585 67.009-108.749-10.326-122.567-38.439zm103.033 368.322c87.175 1.13 171.917-43.929 221.15-116.243-6.339-20.002-61.435-39.886-73.915-41.731-9.654-1.647-12.284-6.64-15.324 6.64-21.208 69.89-60.14 72.462-116.217 73.523-73.447-1.822-111.316-31.544-131.457-90.547-16.914-8.056-86.193 43.25-87.687 52.222 39.877 75.086 120.659 115.125 203.449 116.136zm-16.882-322.961c54.891-2.255-22.694-53.255 1.38-57.03 22.422 3.244 28.621 30.21 48.848 39.355 10.356 4.858 23.863 17.635 33.23 7.306-4.696-10.924-17.366-16.037-18.746-30.239 10.052-16.649 29.077 22.753 39.939 26.027 7.572 6.358 39.205 18.102 27.787-1.502-39.129-113.189-265.63-82.683-202.797-29.285 18.528 21.749 41.508 41.185 70.36 45.368zm208.918 58.739c3.924-34.296-22.747-63.388-50.782-42.401 4.316 25.933 4.461 54.174 4.762 81.276 26.623 18.613 49.745-12.424 46.021-38.875zm-315.911-5.39c14.261-65.488-54.265-52.207-46.297 3.522.719 25.162 22.671 43.758 45.256 28.718 3.131-9.062.061-20.858 1.041-32.239z" fill="rgba(0,0,0,1)" id="F1m_6sXb14RbspDNzRot2" /><path d="m333.325 260.507c1.171 11.901-12.113 15.777-22.129 22.046-35.584 24.153 2.833 21.629 23.268 24.377 13.448 11.075-7.825 16.271-18.662 14.578-15.93.134-31.033-10.777-30.143-27.132-1.25-22.408 31.167-23.987 36.244-40.289-11.938-59.669 10.137-29.779 11.422 6.421z" fill="rgba(0,0,0,1)" id="MwzSDnJSEuXU9cZw51gVm" /><path d="m322.801 358.798c-48.15 1.659-61.755-63.779-43.6-47.628 5.113 21.919 24.762 34.562 45.861 31.615 17.813-2.177 29.865-15.062 32.02-33.341 2.963-5.413 10.146 1.357 10.239 7.189-1.069 22.009-21.458 42.421-44.52 42.164z" fill="rgba(0,0,0,1)" id="RUtRbF-0yYMoXazvX9zuh" /><path d="m270.829 232.754c.4-11.506 16.202-8.574 17.28 1.437-1.467 12.637-15.965 8.708-17.28-1.437z" fill="rgba(0,0,0,1)" id="CiA4BYXWSQALjlUbF2sKA" /><path d="m354.123 235.439c-.409-10.559 12.737-9.035 14.414.441-.549 9.881-13.685 11.884-14.414-.441z" fill="#000000" id="DNad_T8StZVHGD3CZE" /></g></g></svg>