<svg xmlns="http://www.w3.org/2000/svg" viewBox="0 0 3000 3000" width="3000" height="3000"><g transform="translate(375.0 1017.0) rotate(0.0 1249.5 595.5) scale(3.144424591690364 3.152545064718494)"><svg width="794.74" height="377.79" viewBox="0 0 794.74 377.79"><path d="m700.45 377.79-48.74-.09-395.42-.72-158.59-.29 222.17-229.07 52.59-70.8 58.821-61.931 8.339-.799 36.792 65.495L631.629 327.15z" fill="#57b279"/><path d="M670.49 336.01c-5.84 15.23-12.12 29.41-18.78 41.69l-395.42-.72c5.89-33.49 42.47-59.35 68.1-99.92 53.22-84.25 177.4-72.65 99.41-140.87-16.1-14.08-16.1-34.94 10.16-39.29 12.73-2.11 12.67-25.22 6.29-41 4.98-3.06 11.9-3.01 21.49 4.58 8.83 6.99 15.67 11.24 20.69 13.31z" fill="#006"/><path d="m519.26 377.27-340.92.34L0 377.79l157.69-222.82v-.01l49.103-49.063 29.467 16.213 59.63 73.83z" fill="#57b279"/><path d="M286.43 167.34c-3.06 8.03-8.97 16.82-19.17 18.41-16.7 2.6-31.83-22.95-40.7-22.95s-17.74 18.78-24.52 16.83c-6.78-1.96-8.35-9-9.91-19.44-1.57-10.43-16.7 5.74-28.17 19.44-11.48 13.69-32.87 41.61-36.53 36.22-3.65-5.39 30.26-60.88 30.26-60.88v-.01l44.8-63.3 33.77 30.45z" fill="#fff"/><path d="M280.955 249.86c33.44-32.16-22.305-96.45-44.695-127.75l283 255.16-340.92.34c22.69-54.29 77.026-103.13 102.615-127.75z" fill="#006"/><path d="m794.74 377.79-253.87-.34-139.43-.19 173.23-179.51 60.285-10.883 17.067-7.239 27.738 20.348z" fill="#57b279"/><path d="M482.43 73.79c-5.02-2.07-11.86-6.32-20.69-13.31-9.59-7.59-16.51-7.64-21.49-4.58-1.69-4.19-3.83-7.86-6.29-10.49-11.74-12.52-3.92-21.91 5.66-31.32z" fill="#006"/><path d="M440.25 55.9c-6.72 4.14-9.92 13.95-11.38 18.66-2.55 8.22-11.15 7.63-10.18.79.98-6.85-1.56-15.66-7.23-14.87-5.68.78-15.07 13.1-25.24 22.37-7.77 7.07-17.77 8.02-13.76-6.03L429.52 0l10.1 14.09c-9.58 9.41-17.4 18.8-5.66 31.32 2.46 2.63 4.6 6.3 6.29 10.49zm221.88 110.29c-12.38 16.03-30.42 40.74-30.96 49.66-.78 13.14-21.52 24.04-28.56 22.87-7.05-1.18-6.26-14.87-12.13-18-5.87-3.14-28.57 15.26-36.39 21.52-7.83 6.26-16.83 3.91-8.61-7.51 3.63-5.05 16.15-20.77 29.19-36.98l53.37-55.3z" fill="#fff"/><path d="m794.74 377.79-253.87-.34c11.78-26.7 38.84-51.31 64.27-60.47 41.27-14.87 48.73-55.57 22.9-74.04-25.82-18.47-21.91-51.18 0-100.49l61.83 43.05z" fill="#006"/></svg></g><g transform="translate(243.0 207.0) rotate(0.0 583.5 1348.5) scale(3.0324921004490273 3.078777667046805)"><svg width="384.832" height="875.997" viewBox="0 0 384.832 875.997"><path d="M145.926 804.975c5.674 8.804 14.087 20.739 20.348 27s10.761 17.217 5.478 20.348-39.913 11.935-52.435 9.978-41.87-14.87-41.87-14.87-3.13-27.978 5.283-40.696 63.196-1.76 63.196-1.76zm150.717-8.609c.261 8.087.313 14.156 3.035 16.435 2.182 1.826 9.086 5.538 28.651 10.494 19.565 4.957 38.748 14.288 42.4 20.81s-2.87 21.391-23.478 21.13c-20.609-.261-111.913-10.696-111.913-10.696s-6-43.043-1.826-58.174c4.175-15.129 63.131.001 63.131.001zm-188.8-413.928c-3.004 6.581-2.457 13.806-.852 17.342s3.913 9.783 12.913 9.783 32.478-23.283 32.087-25.239c-.391-1.957-10.565-7.435-13.109-9.391-2.543-1.958-31.039 7.505-31.039 7.505zm93.529-268.375c-16.568-18.386-131.01-29.8-167.952-20.017-36.101 9.56 51.603 38.633 51.603 38.633s56.436-13.59 58.774-15.938c2.338-2.347 57.575-2.678 57.575-2.678z" fill="#57b279"/><path d="M110.63 104.634s35.233.378 46.341 1.804c32.348 4.15 41.125 6.155 46.077 14.227 7.441 12.129 14.792 31.577 19.105 72.261 7.893 74.444-39.627 146.469-39.627 146.469s-61.514 31.801-119.774 28.814C45.971 320.611 80.014 143.351 78.84 145.698c-1.174 2.348 31.79-41.064 31.79-41.064z" fill="#006"/><path d="M16.239 112.569a24.961 24.961 0 0 1 22.01-19.47c8.28-.794 18.895-1.247 30.417-.338 15.584 1.229 28.899 5.292 37.135 8.385 5.071 1.904 8.092 7.124 7.169 12.462-2.421 14.01-6.416 44.269-5.024 85.748 1.836 54.717 8.02 101.378 18.154 130.523 1.303 3.748 1.143 8.221-1.537 11.148-19.115 20.877-39.541 25.89-68.077 27.632-4.693.287-9-2.751-11.229-6.891-14.603-27.116-27.998-76.104-32.677-126.852-4.284-46.469-3.48-90.07 3.659-122.347z" fill="#57b279"/><path d="M58.101 246.233h-1.61c-11.67 0-21.13-9.46-21.13-21.13V160.46c0-11.67 9.46-21.13 21.13-21.13h1.61c11.67 0 21.13 9.46 21.13 21.13v64.642c.001 11.67-9.46 21.131-21.13 21.131z" fill="#006"/><path d="M49.595 246.233c-11.67 0-21.13-9.46-21.13-21.13V160.46c0-11.67 9.46-21.13 21.13-21.13 11.67 0 21.13 9.46 21.13 21.13v64.642c0 11.67-9.46 21.131-21.13 21.131z" fill="#57b279"/><path d="m263.513 387.584 26.609 194.348c1.242 7.818.826 20.81-1.753 25.547l-3.409 6.35s4.105 87.272 25.022 186.498c.289 1.369-.326 2.787-1.547 3.472-27.164 15.238-53.782 14.017-86.124 12.767a3.23 3.23 0 0 1-3.107-3.05c-.909-16.82-5.383-101.297-5.383-133.687 0-36 3.91-65.823 3.91-65.823l-39.826-146.485 18.252-85.083z" fill="#006"/><path d="M205.465 446.029a2.539 2.539 0 0 0-.062.254c-.825 4.408-23.983 126.797-33.206 162.323-1.67 6.432-4.122 12.669-8.467 17.934l-4.15 5.029s-8.048 91.828-7.807 173.87c.004 1.487-1.29 2.624-2.768 2.455-28.363-3.241-55.685-.541-85.163 9.484-1.676.57-3.387-.764-3.256-2.529 1.497-20.143 8.762-113.241 36.682-211.989 0 0 .578-127.84 4.669-169.886 2.635-27.076 12.633-47.959 15.355-53.229a2.474 2.474 0 0 1 2.129-1.336l21.871-.659c.195-.006.391.011.582.051l76.463 15.953a2.485 2.485 0 0 1 1.873 3.147z" fill="#006"/><path d="M361.73 226.823c-27.61.17-54.346-1.855-78.996-10.625-6.89-2.45-13.51-5.26-19.81-8.44l31.93-52.43c8.19 3.18 24.82 9.64 32.95 12.8 1.93 2 3.71 2.63 5.37 2.08-.19-5.2-5.27-25.55-8.23-35.53-4.87-16.47-6.43-26.53-14.37-37.94l-3.34-8.84c-.39-1.1-.61-1.68-.61-1.68l-29.48-19.58-1.63-1.08-5.71-3.8 30.06-27.09c4.02 2.37 12.17 7.49 21.19 19.07 4.82 6.19 7.73 10.42 10.47 14.94 2.27 3.73 3.67 6.3 2.84 10.2l-.53 2.55s12.82 21.58 25.26 46.43c5.68 11.36 10.301 23.408 14.57 34.388 4.92 12.66 6.525 28.273 9.196 40.903 2.921 13.76-7.07 24.084-21.13 23.674z" fill="#fff"/><path d="M362.905 228.978c-27.61.17-55.52-4.01-80.17-12.78l9.21-7.49c15.66 4.09 58.443 15.694 72.003 10.354 13.57-5.35 14.972-13.754 12.102-31.952-1.727-10.953-5.581-32.482-16.955-59.252 5.68 11.36 11.28 23.41 15.55 34.39 4.92 12.66 7.02 27.63 9.69 40.26 2.92 13.76-7.37 26.88-21.43 26.47zM294.997 71.936s17.952-1.694 23.365 5.741c0-12.506-9.587-16.174-9.587-16.174z" fill="#57b279"/><path d="M312.676 162.246c-2.12 15.98-7.5 39.5-14.86 58.77-8.06-2.37-15.54-5.11-21.49-7.47l10.09-31.41z" fill="#006"/><path d="M312.675 162.248s-9.26 37.57-31.75 59.88c-3.95-1.09-8.03-2.24-12.1-3.49-3.52-1.07-7.04-2.22-10.46-3.48-15.06-5.51-28.32-13.01-32.21-25.05-7.17-22.18-3.73-56.72-3.73-56.72.43.01.86.02 1.29.05 3.52.13 7.26.55 11.12 1.18 33.95 5.53 77.84 27.63 77.84 27.63z" fill="#57b279"/><path d="M265.469 305.866c.462 13.564 4.109 37.317-6.283 39.187-2.931 4.874-2.122 11.153-.76 15.74 3.326 11.204 8.217 29.987 8.217 29.987s-40.331 12.717-77.021 5.742c-39.974-7.6-73.827-16.232-83.609-8.089 9.063-31.203 16.239-63.783 16.239-63.783l11.02-8.338-9.651-7.37-3.05-48.453-5.5-44.56 5.68-.967 51.78-80.28h56.07s17.03 11.15 33.07 50.28c16.051 39.129 2.233 74.926 3.798 120.904z" fill="#57b279"/><path d="M270.164 240.398c-.63 6.65-2.77 22.3-2.77 22.3s-3.19-23.93-9.03-47.54c-1.2-4.85-2.51-9.68-3.92-14.29-8.84-28.81-24.98-57.62-30.73-67.43 3.52.13 7.26.55 11.12 1.18 6.94 11.16 28.33 45.27 33.99 84.02 1.041 7.13 1.551 14.43 1.34 21.76z" fill="#006"/><path d="M234.651 114.483c-7 4.95-4.769 13.068-5.809 18.908-.56 3.09-1.09 6.06-2.44 8.67-3.91 7.57-5.2 33.77-5.2 33.77s-60.93-28.96-49.45-45.13c11.48-16.18 18.52-48.2 18.52-48.2s17.84 8.02 32 16.48c11.47 6.85 17.169 12.112 12.379 15.502z" fill="#fff"/><path d="M158.839 186.714c-.5 1.03-32.489 66.529-39.469 82.029 0 0-2.683 3.219-2.693 3.229v-53.954c15.469-13.159 41.522-30.774 42.162-31.304z" fill="#006"/><path d="M238.012 116.351c-7 4.95-8.13 11.2-9.17 17.04-5.93-2.1-12.4-2.24-18.68-8.63-10.76-10.95-17.41-33.85-17.41-33.85s16.22 4.41 29.52 8.07c11.47 6.85 20.53 13.98 15.74 17.37z" fill="#57b279"/><path d="M264.952 43.571c-2.51 10.77-5.63 16.969-5.63 21.659 0 4.7-.356 11.518-1.856 18.568-.6 2.81-.333 6.343-1.153 8.963-1.84 5.97-3.94 11.59-4.86 17.52-.98 6.27-2.55 12.33-13.7 9.79-10.36-2.37-30.59-13.71-35.09-16.64-4.5-2.94-7.79-6.86-9.91-12.52-2.35-6.26-16.63-15.06-14.87-27.39 1.17-8.15 10.86-26.94 25.49-35.6 3.04-1.81 6.3-3.18 9.73-3.92 1.85-.4 3.64-.76 5.38-1.07 17.03-3.09 28.77-2.27 35.51 1.46 1.55.86 3.01 1.89 4.32 3.06 4.969 4.39 7.919 10.62 6.639 16.12z" fill="#fff"/><path d="M232.666 90.003c1.679 1.231 6.391 1.565 9.652 1.696 3.261.13 7.043.783 8.87 2.348 2.348-.261 3.261-2.022 3.261-2.022s-1.997-2.027-8.739-2.022c-6.914.006-8.87 1.043-13.044 0zm7.826 5.674c4.825 1.784 8.739 1.5 8.739 1.5s-2.129 1.176-4.761.587c-2.701-.605-3.978-2.087-3.978-2.087zm1.631-14.022 3.913.848s2.348-2.348.652-2.935-4.565 2.087-4.565 2.087z" fill="#006"/><path d="M264.952 43.571c-2.51 10.77-4.11 17.61-4.11 22.3 0 4.7-.85 11.73-2.35 18.78-.6 2.81-1.36 5.49-2.18 8.11-.493-7.128-5.25-9.08-5.25-9.08s1.76-.49 3.91-1.86.699-4.832-1.077-11.938c-1.37-5.478-4.01-12.423-12.75-19.663s-22.563-11.539-33.903-5.879l-3.87-16.42c3.04-1.81 6.3-3.18 9.73-3.92 1.85-.4 3.64-.76 5.38-1.07l39.83 4.52c4.97 4.39 7.92 10.62 6.64 16.12z" fill="#57b279"/><g fill="#006"><path d="M265.836 42.31c-8.491 0-16.188-7.712-27.851-8.158-9.173-.351-24.856 2.677-30.018 12.81-3.542 6.954-4.398 16.634-4.398 18.738 0 2.103-3.633 3.824-5.545 1.147s-3.123-6.819-6.756-7.202c-3.633-.382-8.54 2.167-7.584 8.571 1.17 7.836 6.699 16.107 8.799 19.51s-4.599 12.775-13.967 12.584c-9.369-.191-11.09-7.839-9.56-11.472-5.927-.956-7.487-10.134-.493-15.87-9.449-7.266-6.274-16.446-.839-21.8 5.214-5.136.207-8.787 2.103-14.914 2.486-8.03 8.927-6.383 10.178-14.722.574-3.824 7.819-12.103 17.737-12.428 10.674-.35 10.97-6.143 17.973-7.805 16.252-3.858 20.458 1.878 25.812 4.172s19.627.903 25.429 8.222c6.973 8.796 9.968 28.617-1.02 28.617zm29.442 16.419c0 7.841-6.358 14.189-14.199 14.189-1.239 0-2.438-.162-3.585-.457-6.104-1.584-10.604-7.13-10.604-13.732 0-6.582 4.479-12.127 10.563-13.732a14.183 14.183 0 0 1 3.626-.467c7.841 0 14.199 6.358 14.199 14.199z"/><path d="m279.044 44.677 32.392-2.652 1.971 30.391-32.328.502zm-4.204 16.43c0 4.833-3.455 8.745-7.716 8.745a6.93 6.93 0 0 1-1.948-.282c-3.317-.977-5.762-4.395-5.762-8.464 0-4.057 2.434-7.474 5.74-8.464a6.849 6.849 0 0 1 1.971-.288c4.26.001 7.715 3.92 7.715 8.753z"/><path d="m266.018 52.446 17.603-1.635 1.071 18.732-17.568.309zm62.654 4.717c0 8.429-6.835 15.253-15.264 15.253a15.5 15.5 0 0 1-3.854-.491c-6.562-1.703-11.399-7.665-11.399-14.762 0-7.075 4.815-13.037 11.355-14.762a15.283 15.283 0 0 1 3.898-.502c8.429 0 15.264 6.835 15.264 15.264z"/><path d="M328.672 57.163c0 8.429-6.835 15.253-15.264 15.253a15.5 15.5 0 0 1-3.854-.491c-6.562-1.703-11.399-7.665-11.399-14.762 0-7.075 4.815-13.037 11.355-14.762a15.283 15.283 0 0 1 3.898-.502c8.429 0 15.264 6.835 15.264 15.264z"/></g><path d="M324.719 57.163c0 8.156-6.617 14.773-14.773 14.773-.131 0-.262 0-.393-.011-6.562-1.703-11.399-7.665-11.399-14.762 0-7.075 4.815-13.037 11.355-14.762.142-.011.295-.011.437-.011 8.156 0 14.773 6.606 14.773 14.773z" fill="#57b279"/><path d="M309.686 45.93c2.193-1.4 9.623-.194 11.749 5.483 2.467 6.586-1.258 14.708-2.919 14.171-2.421-.783 1.21-4.606-.57-8.112-2.006-3.951-4.415-4.104-7.192-5.117s-3.384-4.946-1.068-6.425zm9.326 46.621c-.25 1.14-.53 2.16-.78 3-.45 1.49-.81 2.43-.81 2.43-.86-2.97-.96 3.13-4.08 1.28-.01 0-1.708-1.43-2.909-5.24-.02-.06.898-1.321-.147-.734-1.38-4.67-5.205-5.256-6.835-6.156-.01-.01-.02-.01-.04-.02-3.37-1.83-15.468-5.331-15.468-5.331s-7.802-7.329-12.892-12.639c-1.1-1.14-.72-2.86.46-3.58.33-.2.73-.33 1.18-.33 2.66-.02 5.19.57 7.45 1.41 4.11 1.51 7.34 3.87 8.9 4.97 6.66.86 15.21 1.56 22.02 4.83 5.731 2.75 5.141 10.68 3.951 16.11zm-24.853-56.556-3.3 12.387.016 7.86c.002 1.205 1.49 1.779 2.292.88 1.626-1.822 3.553-4.509 3.723-7.158l4.464-8.571-.259-4.613-.94-1.939c-2.66-1.708-5.355-.873-5.996 1.154z" fill="#fff"/><path d="m289.35 34.755-5.343 10.626-1.609 7.694c-.247 1.179 1.09 2.049 2.061 1.335 1.968-1.446 4.408-3.677 5.123-6.233l5.373-6.64 1.466-5.391-2.009-2.053a3.193 3.193 0 0 0-5.062.662z" fill="#fff"/><path d="m283.788 33.828-5.343 10.626-1.609 7.694c-.247 1.179 1.09 2.049 2.061 1.335 1.968-1.446 4.408-3.677 5.123-6.233l5.373-6.64 1.466-5.391-2.009-2.053a3.193 3.193 0 0 0-5.062.662z" fill="#fff"/><path d="m277.856 35.636-5.343 10.626-1.609 7.694c-.247 1.179 1.09 2.049 2.061 1.335 1.968-1.446 4.408-3.677 5.123-6.233l5.373-6.64 1.466-5.391-2.009-2.053a3.193 3.193 0 0 0-5.062.662z" fill="#fff"/><path d="M259.465 53.746c0 7.841-6.358 14.189-14.199 14.189-1.239 0-2.438-.162-3.585-.457-6.104-1.584-10.604-7.13-10.604-13.732 0-6.582 4.479-12.127 10.563-13.732a14.183 14.183 0 0 1 3.626-.467c7.841 0 14.199 6.358 14.199 14.199z" fill="#006"/><path d="m243.231 39.694 32.393-2.652 1.971 30.391-32.329.502zm-3.762 15.43c0 4.833-3.455 8.745-7.716 8.745a6.93 6.93 0 0 1-1.948-.282c-3.317-.977-5.762-4.395-5.762-8.464 0-4.057 2.434-7.474 5.74-8.464a6.849 6.849 0 0 1 1.971-.288c4.26.001 7.715 3.92 7.715 8.753z" fill="#006"/><path d="m230.647 46.463 17.603-1.635 1.071 18.732-17.568.309zm62.212 5.717c0 8.429-6.835 15.253-15.264 15.253a15.5 15.5 0 0 1-3.854-.491c-6.562-1.703-11.399-7.665-11.399-14.762 0-7.075 4.815-13.037 11.355-14.762a15.283 15.283 0 0 1 3.898-.502c8.429 0 15.264 6.835 15.264 15.264z" fill="#006"/><path d="M288.906 52.18c0 8.156-6.617 14.773-14.773 14.773-.131 0-.262 0-.393-.011-6.562-1.703-11.399-7.665-11.399-14.762 0-7.075 4.815-13.037 11.355-14.762.142-.011.295-.011.437-.011 8.156 0 14.773 6.606 14.773 14.773z" fill="#57b279"/><path d="M273.874 40.947c2.193-1.4 9.623-.194 11.749 5.483 2.467 6.586-1.258 14.708-2.919 14.171-2.421-.783 1.21-4.606-.57-8.112-2.006-3.951-4.415-4.104-7.192-5.117s-3.385-4.945-1.068-6.425z" fill="#fff"/><path d="m55.007 206.045 53.706-74.482c9.897-13.725 27.053-20.215 43.547-16.437 5.451 1.249 11.348 4.935 14.015 7.486 9 8.609 17.217 29.478 8.087 44.087s-39.436 55.759-55.327 79.923c-34.151-18.88-64.028-40.577-64.028-40.577z" fill="#57b279"/><path d="M119.032 246.621c-1.25 1.99-5.86 1.59-12.32-.66-6.68-2.32-15.33-6.63-24.32-12.32-17.07-10.82-29.09-22.71-27.59-27.15.05-.16.12-.31.21-.45.12-.19.26-.35.44-.49 3.62-2.99 19.33 2.79 36.2 13.48 9.52 6.03 17.47 12.4 22.39 17.62 4.2 4.48 6.17 8.11 4.99 9.97zm140.154 98.432c-.29 5.68-.54 10.96-.76 15.74-8.72-.79-32.344-3.112-74.664-14.672-16.02-4.37-40.21-15.72-51.8-20.99-3.9-1.76-6.37-2.85-6.63-2.75-.95.35 5.77-10.89 7.08-13.07.14-.24.22-.37.22-.37l4.45 3.4c21.12 12.52 46.53 20.08 71.31 25.98 19.45 4.64 41.284 6.012 50.794 6.732z" fill="#006"/><path d="M166.275 122.611c11.87 7.696 46.566 44.609 49.762 44.739 3.195.13 8.152-10.696 8.543-11.348s4.781 26.478-3.088 25.826-27.528-10.043-27.528-10.043l-26.123-20.087z" fill="#57b279"/><path d="M159.563 115.348s10.527 7.706 15.191 25.067c3.813 14.197 3.754 35.041.391 59.152-5.154 36.952-26.675 69.516-26.675 69.516v10.37s-18.23 21.575-22.689 26.724c-.707 8.609 5.769 12.489 5.769 12.489l27.313-33.836 9.563-6.356s7.528-14.943 9.92-21.326c16.788-44.804 22.496-87.788 10.95-114.259-6.91-15.843-23.02-28.827-23.02-28.827z" fill="#006"/><path d="m173.855 362.425-29.52 3.71c-3.98.44-7.98-.69-11.15-3.14-4.75-3.66-14.567-11.66-24.953-20.862-12.505-11.079-41.356-39.84-66.529-62.922-10.683-9.796-14.36-25-7.13-37.56l20.23-35.16.65-.94c1.43-1.18 4.75-.99 9.29.33l.01.01c6.93 2.02 16.7 6.68 26.9 13.14 9.52 6.03 17.47 12.4 22.39 17.62l-4.26 5.41-3.07 3.9-10.85 13.79 43.283 67.165 32.98.019z" fill="#fff"/><path d="m161.681 362.908 14.754-.583 10.398 3.652s3.759 2.544 8.209 3.899c1.746.532 3.091-1.573 1.877-2.936l-6.434-7.094-10.952-5.446-14.221-.554z" fill="#fff"/><path d="M157.582 343.184h23.958l15.573 6.611 9.222 8.444c1.054.965.251 2.722-1.166 2.541-3.093-.395-7.426-1.467-11.272-4.292-.13 0-12.748-4.174-12.748-4.174l-20.87 1.826z" fill="#fff"/><path d="m163.188 335.382 25.733.836 15.946 6.966 10.077 11.342c1.081 1.104.11 2.954-1.41 2.675-3.317-.609-7.932-2.024-11.919-5.302-.141-.008-13.52-5.262-13.52-5.262l-22.644.737z" fill="#fff"/><path d="m156.664 326.987 26.442-.114 17.033 8.01 9.447 9.336c1.079 1.067.156 2.899-1.34 2.65-3.267-.544-7.822-1.858-11.791-5.012-.138-.005-13.362-4.946-13.362-4.946l-22.224 1.094z" fill="#fff"/><path d="m114.042 236.651-3.463 6.547c-11.855-15.725-45.027-36.697-45.827-37.307 6.93 2.02 16.7 6.68 26.9 13.14 9.52 6.03 17.47 12.4 22.39 17.62z" fill="#006"/><path d="M319.172 86.421c-.916 8.326-.81 21.772 1.729 33.922-5.279-13.78-10.194-25.585-17.489-33.232 4.481 1.81 15.601.146 15.76-.69zm19.484 109.345c-6.15-5.46-9.36-18.96-10.85-27.64l5.37 2.08c.26 6.26 3.13 20.87 5.48 25.56zm-322.816-66.6c-8.753.75-15.525 7.981-15.694 16.764-.161 8.392-.243 18.943.042 28.334.225 7.41.506 14.477.769 20.378.401 9.017 7.714 16.178 16.737 16.393l.494.012zm4.348 105.358C9.69 236.807 2.506 246.515 3.414 257.22c.973 11.472 2.646 26.568 5.426 40.5 2.461 12.328 6.325 24.22 9.831 33.571 4.043 10.785 15.933 16.397 26.848 12.718l2.452-.826zm139.454-131.893-1.9-.6-12.77-4.04s4.5-20.58-15.85-23.51c-1.9-.27-3.68-.32-5.34-.17-16.73 1.48-21.85 22.23-21.85 22.23l-15.84-1.73s13.22-30.01 42.37-25.22c3.7.61 6.96 1.59 9.83 2.84.53.23 1.06.48 1.57.73l.01.01c.51.25 1 .52 1.49.78.01.01.02.02.03.02.96.54 1.87 1.1 2.73 1.7.03.03.07.06.11.08.45.32.89.64 1.32.97s.85.66 1.26 1.01c.12.1.25.2.37.32 9.6 8.4 11.86 20.05 12.34 23.55.09.66.12 1.03.12 1.03z" fill="#57b279"/><path d="m159.642 102.631-1.9-.6-12.77-4.04s4.5-20.58-15.85-23.51c-1.9-.27-3.68-.32-5.34-.17 3.67-.76 9.26-1.81 14.51-1.88.53.23 1.06.48 1.57.73l.01.01c.51.25 1 .52 1.49.78.01.01.02.02.03.02.95.54 1.86 1.11 2.73 1.7.03.03.07.06.11.08.45.32.89.64 1.32.97s.85.66 1.26 1.01c.12.1.25.2.37.32 9.6 8.4 11.86 20.05 12.34 23.55.09.66.12 1.03.12 1.03zm74.299 740.208c-.796 1.598-2.906 8.506-2.71 15.549-2.348 4.194-4.5 10.957-2.935 15.196h55.956c1.146-2.455 1.432-5.159.065-8.345 0 0 36.587 8.605 37.369 8.345.783-.261 55.826 0 55.826 0v-5.511s5.348-6.75-1.304-10.791c1.826-10.829.261-15.786-6.522-19.438s-11.763-5.199-13.991-4.633c-11.052 2.807-14.998 21.85-18.911 21.85-4.696 0-47.274-1.885-61.793-2.87-6.078-.412-10.279-.657-13.435-2.348-4.835-2.591-8.398-5.436-10.957-7.565-3.318-2.761-14.347-5.346-16.658.561zm-108.46 16.136s10.663-20.152 22.206-23.478 31.304-5.283 38.935 16.63c8.413 6.326 4.826 16.891.326 19.63-4.78 2.91-10.109 3.261-10.109 3.261h-58.304l-11.152-6.261s1.761 4.027 0 7.239H69.848s-3.813-11.543 2.709-22.653c.652-15.369 4.387-21.759 4.387-21.759s8.331-.197 10.287 6.26c1.957 6.457 7.174 13.435 10.109 14.609 2.934 1.174 28.141 6.522 28.141 6.522z" fill="#006"/><path d="m130.766 833.936-1.091-1.677c.499-.325 11.06-7.134 21.72-9.218-7.926-1.938-22.837-1.845-25.387-.261a1 1 0 0 1-1.089-1.677c7.374-4.997 13.294-7.174 17.299-8.111-6.928-1.516-18.636-3.634-24.269-2.097a1.001 1.001 0 0 1-.721-1.854c16.923-8.725 23.551-6.058 23.824-5.94l-.79 1.837c-.042-.017-4.88-1.807-16.968 3.43 9.964.06 24.179 3.792 24.91 3.986.502.133.819.629.729 1.141-.09.511-.57.872-1.075.822-.071-.005-6.52-.455-17.067 5.491 7.954-.677 20.955.298 25.231 2.826a1.001 1.001 0 0 1-.442 1.858c-11.337.759-24.681 9.357-24.814 9.444zm201.095 4.387a1 1 0 0 1-.94-.658c-1.574-4.329-1.602-9.628-1.495-12.257-4.566 1.951-13.059 6.173-14.653 9.717a1.002 1.002 0 0 1-1.909-.331c-.399-4.982 1.096-10.827 1.925-13.597-3.648.721-12.64 2.961-17.127 8.17a.998.998 0 0 1-1.71-.35c-.126-.398-2.89-9.39 2.197-15.957-3.686-1.514-12.699-.05-16.157.718a1 1 0 0 1-1.054-1.523c.193-.295 4.849-7.254 15.789-9.611l.421 1.955c-6.453 1.39-10.578 4.552-12.726 6.67 4.502-.777 12.806-1.77 15.893.76a1 1 0 0 1 .097 1.455c-3.95 4.239-3.478 10.295-2.946 13.22 6.562-6.056 18.123-7.696 18.646-7.767a1 1 0 0 1 1.078 1.323c-.024.069-2.057 5.925-2.354 11.508 4.631-4.584 14.818-8.623 15.325-8.822a1.001 1.001 0 0 1 1.361 1.028c-.006.068-.576 6.195.783 11.399 3.702-3.575 10.954-7.794 11.299-7.994l1.003 1.73c-.092.053-9.24 5.375-11.958 8.834-.193.241-.484.38-.788.38z" fill="#006"/></svg></g><g transform="translate(1992.0 666.0) rotate(0.0 243.0 108.0) scale(3.1549632245541828 3.1709214756529014)"><svg width="154.043" height="68.119" viewBox="0 0 154.043 68.119"><g fill="#006"><path d="M0 58.989s7.565-1.043 12.522 2.348c3.913-5.478 10.435-3.652 10.435-3.652s-6.522 5.217-9.13 10.435C8.87 64.206 0 58.989 0 58.989zm52.957-3.13c6.783-5.478 12-9.13 12-9.13s-6.522-.783-12 2.87c-5.478-3.652-13.304-1.043-13.304-1.043s8.869 3.65 13.304 7.303zm-19.566-18c-6-4.174-13.304-4.174-13.304-4.174s6.261-4.435 12.522.427c5.478-4.174 9.799-2.303 9.799-2.303s-4.116 1.221-9.017 6.05zm100.305-21.384C141.261 5.78 147.522 3.693 154.043 5.78c-10.957-9.391-18.522-5.623-21.391-.724-6.782-6.32-15.652-1.694-19.043 2.123 11.478.166 17.739 6.427 20.087 9.296z"/></g></svg></g></svg>